<svg version="1.0" xmlns="http://www.w3.org/2000/svg" width="700pt" height="700pt" viewBox="0 0 700 700"><g transform="translate(0.000000,700.000000) scale(0.100000,-0.100000)" fill="#000" stroke="none"><path d="M1270 5769c-193-27-417-82-604-150l-86-31v-209c0-115 2-209 5-209 3 0 37 16 75 35 170 85 397 153 591 175 154 18 420 8 524-19 131-34 238-93 320-175 110-111 161-235 167-411l3-80-470-6c-494-6-529-8-727-59-471-121-708-445-685-940 7-144 31-249 81-354 112-231 314-377 616-442 117-25 362-30 5e2-10 140 21 309 76 414 136 156 89 307 232 406 383l37 58 51-69c72-97 216-232 318-299 151-98 328-164 534-2e2 139-25 513-24 675 1 160 24 392 84 540 138l120 45 3 216c1 119 1 217-1 217-2 0-57-25-122-56-230-109-465-172-725-194-559-48-931 166-1073 616-29 93-57 239-57 302v42h1046 1047l-6 228c-7 323-41 490-142 698-155 320-413 526-755 606-112 25-390 35-526 18-286-36-540-157-737-350l-88-86-33 45c-43 58-147 157-209 2e2-127 86-323 158-510 185-115 17-406 20-517 5zm2514-399c313-80 511-339 542-707l7-83h-812-812l6 48c51 366 240 617 537 716 105 36 162 43 319 45 105 1 153-3 213-19zM2270 4273c0-526-235-899-626-995-115-28-308-30-404-5-262 69-4e2 245-4e2 512 0 286 134 439 445 504 155 33 233 38 623 40l362 1v-57z"/><path d="M5525 3610c-129-14-234-66-336-169-51-51-86-97-107-141-60-123-62-141-62-831 0-591 1-630 20-703 27-105 73-189 145-262 176-178 437-223 663-112 92 45 208 160 250 248 63 130 62 119 62 842v657l-25 78c-83 261-332 421-610 393z"/><path d="M4260 1858c0-24 7-86 14-138 60-398 318-750 697-954 93-50 296-121 378-132l51-7V314 0h190 190l2 312 3 311 70 14c396 79 758 357 939 721 73 145 126 350 126 483v59h-159-158l-7-79c-21-250-156-503-353-659-212-169-499-254-753-223-362 44-654 242-809 548-45 89-81 224-88 326l-6 87h-163-164v-42z"/></g></svg>