<?xml version="1.0" standalone="no"?>
<!DOCTYPE svg PUBLIC "-//W3C//DTD SVG 20010904//EN"
 "http://www.w3.org/TR/2001/REC-SVG-20010904/DTD/svg10.dtd">
<svg version="1.0" xmlns="http://www.w3.org/2000/svg"
 width="700.000000pt" height="700.000000pt" viewBox="0 0 700.000000 700.000000"
 preserveAspectRatio="xMidYMid meet">
<metadata>
Created by potrace 1.14, written by Peter Selinger 2001-2017
</metadata>
<g transform="translate(0.000000,700.000000) scale(0.100000,-0.100000)"
fill="#000000" stroke="none">
<path d="M1270 5769 c-193 -27 -417 -82 -604 -150 l-86 -31 0 -209 c0 -115 2
-209 5 -209 3 0 37 16 75 35 170 85 397 153 591 175 154 18 420 8 524 -19 131
-34 238 -93 320 -175 110 -111 161 -235 167 -411 l3 -80 -470 -6 c-494 -6
-529 -8 -727 -59 -471 -121 -708 -445 -685 -940 7 -144 31 -249 81 -354 112
-231 314 -377 616 -442 117 -25 362 -30 500 -10 140 21 309 76 414 136 156 89
307 232 406 383 l37 58 51 -69 c72 -97 216 -232 318 -299 151 -98 328 -164
534 -200 139 -25 513 -24 675 1 160 24 392 84 540 138 l120 45 3 216 c1 119 1
217 -1 217 -2 0 -57 -25 -122 -56 -230 -109 -465 -172 -725 -194 -559 -48
-931 166 -1073 616 -29 93 -57 239 -57 302 l0 42 1046 0 1047 0 -6 228 c-7
323 -41 490 -142 698 -155 320 -413 526 -755 606 -112 25 -390 35 -526 18
-286 -36 -540 -157 -737 -350 l-88 -86 -33 45 c-43 58 -147 157 -209 200 -127
86 -323 158 -510 185 -115 17 -406 20 -517 5z m2514 -399 c313 -80 511 -339
542 -707 l7 -83 -812 0 -812 0 6 48 c51 366 240 617 537 716 105 36 162 43
319 45 105 1 153 -3 213 -19z m-1514 -1097 c0 -526 -235 -899 -626 -995 -115
-28 -308 -30 -404 -5 -262 69 -400 245 -400 512 0 286 134 439 445 504 155 33
233 38 623 40 l362 1 0 -57z"/>
<path d="M5525 3610 c-129 -14 -234 -66 -336 -169 -51 -51 -86 -97 -107 -141
-60 -123 -62 -141 -62 -831 0 -591 1 -630 20 -703 27 -105 73 -189 145 -262
176 -178 437 -223 663 -112 92 45 208 160 250 248 63 130 62 119 62 842 l0
657 -25 78 c-83 261 -332 421 -610 393z"/>
<path d="M4260 1858 c0 -24 7 -86 14 -138 60 -398 318 -750 697 -954 93 -50
296 -121 378 -132 l51 -7 0 -313 0 -314 190 0 190 0 2 312 3 311 70 14 c396
79 758 357 939 721 73 145 126 350 126 483 l0 59 -159 0 -158 0 -7 -79 c-21
-250 -156 -503 -353 -659 -212 -169 -499 -254 -753 -223 -362 44 -654 242
-809 548 -45 89 -81 224 -88 326 l-6 87 -163 0 -164 0 0 -42z"/>
</g>
</svg>
